<?xml version="1.0" encoding="UTF-8"?>
<svg version="1.1" xmlns="http://www.w3.org/2000/svg" width="1200" height="938">
<path d="M0 0 C7.65358221 6.56937012 14.79186868 13.65162959 21.90835571 20.7881012 C23.07996698 21.9592755 24.25179835 23.13022967 25.42382848 24.3009848 C28.61872184 27.49365774 31.81051504 30.68941384 35.00177932 33.8857137 C38.45312162 37.34139578 41.90737548 40.79416544 45.36126709 44.24729919 C51.33666395 50.22217305 57.31023485 56.19886738 63.28255081 62.17682076 C71.91739968 70.81981493 80.55502587 79.46002914 89.19332092 88.09957885 C103.21010324 102.11854693 117.22465339 116.13974427 131.23779297 130.16235352 C144.84599265 143.77973963 158.45524774 157.39606953 172.06591797 171.01098633 C172.90562349 171.85095457 173.745329 172.69092281 174.61048014 173.55634464 C178.82326467 177.77043424 183.03606988 181.98450316 187.24888539 186.19856179 C222.16913297 221.12916716 257.08575519 256.06339474 292 291 C295.22091974 289.46509269 297.39472843 287.85458176 299.92658997 285.32064819 C300.69607468 284.55535797 301.46555939 283.79006775 302.25836182 283.00158691 C303.09325134 282.16107788 303.92814087 281.32056885 304.78833008 280.45458984 C306.1183329 279.12743454 306.1183329 279.12743454 307.47520447 277.77346802 C309.90470582 275.34703703 312.32964929 272.91621834 314.75253129 270.48318815 C317.29508014 267.93183894 319.8429167 265.38578016 322.39006042 262.83901978 C326.67141704 258.55672657 330.94888487 254.27058 335.22387695 249.98193359 C340.15106221 245.03906807 345.08340848 240.10140246 350.01880723 235.16673887 C355.28752114 229.89870356 360.55240649 224.62685449 365.81619811 219.35390139 C367.32498701 217.84299164 368.83447566 216.33278406 370.34412575 214.82273483 C373.1735866 211.99207145 375.99874753 209.15715291 378.82348633 206.32177734 C379.65230316 205.4934137 380.48112 204.66505005 381.33505249 203.81158447 C385.55045258 199.57307397 389.62017439 195.26442758 393.51365185 190.72745705 C395.7804207 188.09298287 398.14152909 185.55269792 400.5 183 C403.53968996 179.70047223 406.56158059 176.39048393 409.5 173 C412.9067735 169.0691075 416.43002785 165.24803427 419.953125 161.421875 C422.50555143 158.64505943 425.02983288 155.85019283 427.5 153 C430.9067735 149.0691075 434.43002785 145.24803427 437.953125 141.421875 C440.50555143 138.64505943 443.02983288 135.85019283 445.5 133 C446.66666667 131.66666667 447.83333333 130.33333333 449 129 C449.81984375 128.05125 450.6396875 127.1025 451.484375 126.125 C463.78320608 112.11965368 477.92524142 102.554112 496.875 101.1875 C514.08170115 100.26126352 528.7239024 105.78681696 541.53689575 117.27449036 C544.16585622 119.82170173 546.74669958 122.40872218 549.3125 125.01953125 C550.25682183 125.96946763 551.20182252 126.91872959 552.14746094 127.86735535 C554.60614166 130.33735552 557.05567359 132.81622876 559.50323486 135.29724121 C562.00571056 137.83063686 564.51690049 140.35536327 567.02734375 142.88085938 C571.4231691 147.30521951 575.81149373 151.73692633 580.19433594 156.17414856 C581.45916955 157.45312305 582.7280763 158.7280763 584 160 C583.12859375 160.03738281 582.2571875 160.07476562 581.359375 160.11328125 C564.81326384 161.02654063 550.36548829 165.07908835 537.671875 176.140625 C537.08010468 176.65247849 536.48833435 177.16433197 535.87863159 177.69169617 C527.57464054 184.99363845 519.88312841 192.94178011 512.125 200.8125 C509.80690328 203.15844681 507.48723551 205.5027876 505.16452026 207.84416199 C503.73464999 209.28605615 502.30745444 210.73061013 500.88357544 212.17842102 C497.05177445 216.04843219 493.10373424 219.69002355 488.98019409 223.24589539 C485.60273489 226.23773179 482.45045082 229.44692532 479.28125 232.65625 C478.57907349 233.36221313 477.87689697 234.06817627 477.15344238 234.79553223 C474.93315397 237.02791358 472.71616045 239.26352111 470.5 241.5 C467.57590521 244.45090378 464.64836943 247.39833203 461.71875 250.34375 C461.063302 251.00749634 460.407854 251.67124268 459.73254395 252.35510254 C455.95033123 256.15701303 452.04683553 259.73309695 447.98815918 263.23669434 C444.60949215 266.23324651 441.45330837 269.44403159 438.28125 272.65625 C437.57907349 273.36221313 436.87689697 274.06817627 436.15344238 274.79553223 C433.93315397 277.02791358 431.71616045 279.26352111 429.5 281.5 C426.57590521 284.45090378 423.64836943 287.39833203 420.71875 290.34375 C420.063302 291.00749634 419.407854 291.67124268 418.73254395 292.35510254 C418.09828491 292.99266479 417.46402588 293.63022705 416.81054688 294.28710938 C415.99402649 295.11148499 415.99402649 295.11148499 415.16101074 295.95251465 C413.31485615 297.70168434 411.42984669 299.34931282 409.49827576 301.00172424 C404.40088989 305.45630299 399.64228212 310.22546476 394.86657715 315.01989746 C393.8632632 316.02349192 392.85972672 317.02686394 391.85598898 318.03003454 C389.11667992 320.76904985 386.38048233 323.51115465 383.6448009 326.25379252 C380.68681824 329.21817759 377.72590541 332.17963339 374.76533508 335.14143372 C369.64067497 340.26897442 364.51779285 345.39828587 359.39607239 350.52876282 C351.98280753 357.95460821 344.56628192 365.3771902 337.14887279 372.79889578 C325.10253604 384.85229307 313.05806894 396.90755664 301.01513672 408.96435547 C300.29503982 409.68528017 299.57494293 410.40620488 298.83302492 411.14897579 C293.72196676 416.26593407 288.61097559 421.38295925 283.5 426.5 C277.66166731 432.345261 271.8233043 438.19049173 265.98486328 444.03564453 C264.90604091 445.11570909 264.90604091 445.11570909 263.80542415 446.21759313 C251.80618116 458.23052997 239.80496855 470.24149724 227.80235338 482.25106478 C220.4050508 489.65284318 213.00952982 497.05639315 205.61631167 504.46225131 C200.5500709 509.53692895 195.48205394 514.60982809 190.41264617 519.68134201 C187.4898736 522.60545706 184.56793233 525.53039044 181.6482029 528.45754433 C178.9720844 531.14044194 176.29363555 533.82099051 173.61336833 536.49974328 C172.19236523 537.92114368 170.7738385 539.34501845 169.35542059 540.76899862 C164.91244368 545.20485426 160.41588769 549.50481141 155.64185715 553.58398819 C153.4173297 555.5025212 151.34058274 557.54675333 149.27148438 559.63085938 C148.01978455 560.88751404 148.01978455 560.88751404 146.74279785 562.16955566 C145.86861206 563.05203979 144.99442627 563.93452393 144.09375 564.84375 C142.68137068 566.2619165 141.26898839 567.68008007 139.85643768 569.09807587 C137.40212499 571.56323132 134.95115467 574.03170509 132.5 576.5 C129.57062797 579.44985631 126.64063715 582.39907839 123.70666504 585.34436035 C121.88779387 587.17068429 120.07117348 588.99925361 118.25720215 590.83044434 C113.96693913 595.13769029 109.60867553 599.25877599 104.99862671 603.21954346 C101.10040653 606.69223378 97.49714492 610.46525758 93.84765625 614.1953125 C92.08314756 615.98223038 90.31815774 617.76867328 88.55273438 619.5546875 C85.8169449 622.32729225 83.0843027 625.10271866 80.36010742 627.88671875 C52.42207062 656.40706287 20.54010099 680.19472106 -21.13378906 681.04345703 C-37.28947331 680.98031987 -55.79990892 678.43004855 -67.625 666.625 C-68.27726562 665.91601562 -68.92953125 665.20703125 -69.6015625 664.4765625 C-71.48230288 662.53456021 -73.33739873 660.83535795 -75.3918457 659.0949707 C-81.23603639 654.00470949 -86.6575732 648.48657091 -92.12890625 643.00390625 C-93.28883055 641.84465727 -94.44890312 640.68555663 -95.6091156 639.52659607 C-98.0287161 637.10846178 -100.44651971 634.6885492 -102.86303711 632.26733398 C-105.94143922 629.18323528 -109.02431023 626.10364906 -112.10855198 623.02539158 C-114.50144869 620.63612967 -116.89193238 618.24446486 -119.28172112 615.85209465 C-120.41674617 614.71640839 -121.55249819 613.58144814 -122.68902779 612.44726753 C-128.04198154 607.10295464 -133.30913018 601.74701512 -138.23036194 595.99647522 C-142.04554354 591.69225297 -146.17604388 587.68221851 -150.24609375 583.62109375 C-151.22598053 582.64053119 -152.20571901 581.65982041 -153.18531799 580.67897034 C-155.2268264 578.63599787 -157.27010566 576.59481831 -159.31469727 574.55493164 C-161.91452404 571.96080134 -164.50983373 569.36220566 -167.10381985 566.7622366 C-169.12249396 564.73992175 -171.14357733 562.7200281 -173.1653614 560.70082283 C-174.58232324 559.28483754 -175.99729817 557.86686485 -177.41221619 556.44883728 C-178.28995193 555.57425369 -179.16768768 554.6996701 -180.07202148 553.79858398 C-180.83256332 553.03883774 -181.59310516 552.27909149 -182.37669373 551.49632263 C-184.46008119 549.51378353 -186.57060995 547.62822108 -188.74755859 545.75244141 C-193.3524045 541.74918012 -197.65943156 537.48096623 -201.96704102 533.16235352 C-202.82503296 532.30611389 -203.6830249 531.44987427 -204.5670166 530.56768799 C-206.89733001 528.24099646 -209.22541128 525.9121017 -211.55231977 523.58200574 C-214.00187327 521.12989904 -216.45389015 518.68025747 -218.90550232 516.23020935 C-223.02009876 512.11742603 -227.13259656 508.00255308 -231.24389648 503.88647461 C-235.97946951 499.14546062 -240.71863389 494.40805951 -245.45967919 489.67251831 C-249.54924139 485.58751175 -253.63682959 481.50053763 -257.72281021 477.41194862 C-260.15483604 474.97837346 -262.58750928 472.54545579 -265.02197456 470.11432076 C-267.737868 467.40098003 -270.45051288 464.68443151 -273.16235352 461.96704102 C-273.95683395 461.17458481 -274.75131439 460.3821286 -275.56987 459.56565857 C-279.64062904 455.47953134 -283.5215842 451.30312228 -287.28672886 446.93506527 C-290.23001043 443.61075669 -293.39063275 440.51224362 -296.55249023 437.39746094 C-297.63202469 436.3273452 -297.63202469 436.3273452 -298.73336792 435.23561096 C-300.28296412 433.69977142 -301.83363387 432.16501442 -303.38528252 430.63124847 C-305.84892788 428.19448091 -308.30797116 425.753158 -310.76564026 423.31036377 C-317.74910246 416.36940969 -324.73512115 409.4311041 -331.73754883 402.50927734 C-336.03377133 398.26184486 -340.31993694 394.00448137 -344.5999012 389.74066925 C-346.2223753 388.12802643 -347.84848109 386.51902817 -349.47842216 384.9139328 C-370.48483043 364.22069571 -370.48483043 364.22069571 -374.9375 350.625 C-375.31777344 349.50351562 -375.69804687 348.38203125 -376.08984375 347.2265625 C-378.1828011 339.80689397 -378.28322005 332.53445383 -378.375 324.875 C-378.41238281 323.71484375 -378.44976562 322.5546875 -378.48828125 321.359375 C-378.64644003 305.64893605 -371.10127118 294.17222418 -360.45507812 283.09863281 C-358.82160362 281.45898754 -357.18002373 279.82738507 -355.53125 278.203125 C-354.21163269 276.88631744 -354.21163269 276.88631744 -352.86535645 275.54290771 C-351.02004146 273.70426353 -349.17115829 271.869194 -347.31884766 270.03759766 C-344.50029319 267.25028994 -341.6926309 264.45237245 -338.88671875 261.65234375 C-337.08135132 259.85614529 -335.27538207 258.06055147 -333.46875 256.265625 C-332.63831177 255.43943665 -331.80787354 254.61324829 -330.95227051 253.76202393 C-330.15784546 252.97720642 -329.36342041 252.19238892 -328.54492188 251.38378906 C-327.85845581 250.704151 -327.17198975 250.02451294 -326.46472168 249.32427979 C-324.40413898 247.3811108 -322.30818326 245.52186287 -320.16638184 243.67034912 C-316.21167645 240.22867653 -312.48330022 236.61204711 -308.79296875 232.890625 C-308.12190094 232.21809692 -307.45083313 231.54556885 -306.75942993 230.85266113 C-305.3168177 229.40627216 -303.87536071 227.95873019 -302.43496704 226.51013184 C-300.14940713 224.21169248 -297.86063672 221.91649291 -295.57104492 219.62207031 C-290.71120539 214.75085823 -285.85531035 209.87572595 -281 205 C-275.36926584 199.34558974 -269.73688564 193.69283965 -264.10025024 188.04431152 C-261.8560172 185.79364201 -259.61484077 183.53995969 -257.3737793 181.28613281 C-255.98501306 179.8937308 -254.5961044 178.50147082 -253.20703125 177.109375 C-252.59381012 176.49098755 -251.98058899 175.8726001 -251.3487854 175.23547363 C-248.38964804 172.27598176 -245.38099241 169.43181004 -242.20474625 166.70558739 C-238.36910647 163.36356371 -234.739209 159.86992561 -231.15838623 156.25845337 C-230.5188999 155.61770477 -229.87941357 154.97695616 -229.22054887 154.31679094 C-227.10133851 152.19224939 -224.9857477 150.06414107 -222.87011719 147.93603516 C-221.34186903 146.40258772 -219.81337425 144.86938604 -218.28465271 143.33641052 C-215.00349218 140.04534186 -211.72380355 136.75281588 -208.4451828 133.45921707 C-203.2529147 128.24379249 -198.05568847 123.03332792 -192.85748291 117.82382202 C-178.07985197 103.01283535 -163.30637377 88.19772451 -148.54345703 73.37207031 C-140.38186327 65.17587594 -132.21485879 56.98511335 -124.04187322 48.80027807 C-118.88094331 43.63128274 -113.72663239 38.45580705 -108.57717943 33.27537942 C-105.36161452 30.04372239 -102.13968647 26.81846747 -98.91597176 23.59494209 C-97.4315715 22.10813555 -95.94972048 20.61877845 -94.47073936 19.12658119 C-69.03802726 -6.52372669 -33.52362654 -24.74870015 0 0 Z " fill="#005BAA" transform="translate(380,14)"/>
<path d="M0 0 C3.56281909 2.58920376 6.61021586 5.56261037 9.69542313 8.69433212 C10.36824326 9.36510788 11.04106339 10.03588364 11.734272 10.72698593 C13.93159922 12.92133277 16.11805816 15.12616208 18.30430984 17.33153915 C19.84350862 18.87380102 21.38330368 20.41546801 22.92366409 21.95656967 C26.1405958 25.17808762 29.35257744 28.4044294 32.5606575 31.63476181 C36.65685003 35.75923481 40.76166643 39.87498485 44.86978722 43.98757362 C48.8094539 47.93241552 52.74443359 51.88192001 56.67930984 55.83153915 C57.4221233 56.57623333 58.16493675 57.32092751 58.9302597 58.08818817 C61.04989056 60.21475524 63.16611916 62.34465004 65.28136063 64.47558212 C65.89660599 65.09194534 66.51185135 65.70830856 67.14574051 66.34334946 C70.06772192 69.29382257 72.88081932 72.28735445 75.58063126 75.44292831 C80.39710694 81.00460905 85.66738743 86.12137122 90.89049149 91.29589462 C92.04458518 92.44314532 93.19842225 93.59065422 94.35202408 94.73839951 C96.82300354 97.19612217 99.29540464 99.65240243 101.76883507 102.10765839 C105.68590627 105.99671827 109.59741489 109.89134066 113.5077858 113.78713608 C114.85086234 115.12506981 116.19394578 116.46299662 117.53703594 117.80091667 C118.54538897 118.80539136 118.54538897 118.80539136 119.57411277 119.83015847 C128.66810154 128.88819924 137.76683579 137.94143274 146.87584305 146.98437119 C153.03580059 153.099739 159.18853208 159.22227925 165.33327001 165.35294068 C168.57862217 168.59024874 171.82754333 171.82378191 175.08545494 175.04845428 C178.14998778 178.08177031 181.2049393 181.12442111 184.25303459 184.17425156 C185.36772594 185.28626384 186.48581424 186.39488396 187.60767365 187.49966431 C195.42011356 195.19836431 202.05038536 202.93600845 205.67149734 213.46435165 C205.97700516 214.3254454 206.28251297 215.18653915 206.59727859 216.07372665 C211.08507656 231.63142626 208.92744187 248.62071458 201.35899734 262.77685165 C198.58541771 267.15262667 195.47216969 270.99259765 191.93248367 274.75805283 C191.40988118 275.31867763 190.88727869 275.87930243 190.34883976 276.45691586 C184.99706639 282.16267277 179.48457164 287.70451777 173.93322182 293.21529198 C172.12575294 295.0096802 170.32170548 296.8074519 168.5183754 298.60599899 C164.69727992 302.41583119 160.87219744 306.22164401 157.04649734 310.02685165 C152.58779684 314.46178883 148.13083467 318.89844647 143.67806816 323.33934212 C141.91490316 325.09610625 140.14871948 326.84979417 138.38235855 328.60334396 C131.97356602 334.95628515 131.97356602 334.95628515 125.92467117 341.64867783 C121.17564694 347.20904113 115.90530705 352.2776912 110.72108841 357.42742538 C108.75868095 359.3769192 106.79954581 361.3296509 104.84117508 363.28319931 C99.97948537 368.13161081 95.1123359 372.97452934 90.24534988 377.81762314 C86.12174792 381.92140583 82.00026108 386.02729132 77.8814888 390.13592148 C75.9632122 392.04777644 74.04191992 393.95656371 72.12047195 395.86523056 C65.29877251 402.61012635 65.29877251 402.61012635 58.85899734 409.71435165 C54.13762661 415.25698876 48.88289945 420.29994974 43.72108841 425.42742538 C41.75868095 427.3769192 39.79954581 429.3296509 37.84117508 431.28319931 C32.97948537 436.13161081 28.1123359 440.97452934 23.24534988 445.81762314 C19.12174792 449.92140583 15.00026108 454.02729132 10.8814888 458.13592148 C8.9632122 460.04777644 7.04191992 461.95656371 5.12047195 463.86523056 C3.93029931 465.05176646 2.74026921 466.23844536 1.55040359 467.42528915 C1.02552353 467.9450029 0.50064346 468.46471664 -0.04014206 469.00017929 C-2.83854497 471.79819106 -5.5003921 474.66910716 -8.08936691 477.66271591 C-11.45853357 481.55139697 -15.00607294 485.20806159 -18.65858078 488.82958603 C-19.32135529 489.49090027 -19.98412979 490.15221451 -20.66698837 490.83356857 C-22.09209613 492.25490023 -23.51835684 493.67507666 -24.9456749 495.09418869 C-27.21051083 497.34614222 -29.47210415 499.60130861 -31.7329216 501.85729599 C-37.34590138 507.45697838 -42.96433225 513.05118109 -48.58259201 518.64556503 C-53.34032324 523.38349872 -58.09595587 528.12352041 -62.84887314 532.86628342 C-65.06630343 535.07727852 -67.28674679 537.28521606 -69.50733566 539.49303818 C-70.87951473 540.86158139 -72.25155172 542.23026707 -73.62342453 543.59911728 C-74.23246124 544.20298767 -74.84149796 544.80685806 -75.46899033 545.42902756 C-78.47537035 548.43504222 -81.35941683 551.49833459 -84.14100266 554.71435165 C-87.49108103 558.58764908 -91.02320121 562.22504457 -94.65858078 565.82958603 C-95.32135529 566.49090027 -95.98412979 567.15221451 -96.66698837 567.83356857 C-98.09209613 569.25490023 -99.51835684 570.67507666 -100.9456749 572.09418869 C-103.21051083 574.34614222 -105.47210415 576.60130861 -107.7329216 578.85729599 C-113.34590138 584.45697838 -118.96433225 590.05118109 -124.58259201 595.64556503 C-129.34032324 600.38349872 -134.09595587 605.12352041 -138.84887314 609.86628342 C-141.06630343 612.07727852 -143.28674679 614.28521606 -145.50733566 616.49303818 C-146.87951473 617.86158139 -148.25155172 619.23026707 -149.62342453 620.59911728 C-150.23246124 621.20298767 -150.84149796 621.80685806 -151.46899033 622.42902756 C-155.13782441 626.09741578 -158.58737631 629.90029415 -161.9806366 633.82422638 C-164.32111146 636.48857299 -166.77935351 638.99533598 -169.27820969 641.5126915 C-169.79479645 642.03424316 -170.31138321 642.55579483 -170.84362411 643.09315109 C-172.5259781 644.78991396 -174.21202357 646.48293843 -175.89881516 648.17528915 C-176.48296062 648.762262 -177.06710609 649.34923485 -177.66895294 649.95399475 C-180.76110761 653.06105596 -183.85606265 656.16529404 -186.95350266 659.26708603 C-190.11686028 662.43591291 -193.27083394 665.61390709 -196.42265129 668.79420662 C-198.87997603 671.27034665 -201.34416998 673.73956724 -203.81015778 676.20707703 C-204.97421385 677.37411819 -206.13582056 678.54360875 -207.29469299 679.71579742 C-235.445179 708.16653295 -271.31250059 726.52879637 -310.64100266 733.71435165 C-312.41604172 734.05273056 -312.41604172 734.05273056 -314.22694016 734.3979454 C-361.78005046 741.87647143 -413.1664911 729.49554509 -452.11756516 701.23778915 C-458.15099073 696.73106131 -463.84299336 691.88917085 -469.32459641 686.72216415 C-471.60921006 684.63845384 -471.60921006 684.63845384 -474.33731651 683.02187252 C-478.28954562 680.40959178 -481.4907293 677.13842552 -484.81638718 673.78620529 C-485.86538285 672.74083124 -485.86538285 672.74083124 -486.93557036 671.67433852 C-489.27102947 669.3445025 -491.59928877 667.00760442 -493.92762375 664.67065048 C-495.60294233 662.99640509 -497.27869383 661.3225928 -498.95484543 659.64918137 C-503.50025764 655.10861315 -508.03940095 650.5618252 -512.57731199 646.01376176 C-516.84127434 641.74102682 -521.11042853 637.47348284 -525.37899776 633.20535132 C-533.831942 624.75290719 -542.28005196 616.29564773 -550.72547531 607.83568954 C-558.92626884 599.62078946 -567.13057565 591.40941933 -575.33875656 583.20190048 C-575.84496947 582.69572753 -576.35118238 582.18955458 -576.87273507 581.66804305 C-577.37806341 581.16275507 -577.88339175 580.65746709 -578.40403306 580.13686734 C-587.74614854 570.79544078 -597.08497544 561.45073275 -606.42226481 552.10448239 C-609.72778402 548.7959421 -613.03428346 545.48838364 -616.34108734 542.18112755 C-620.78392875 537.73728561 -625.22422525 533.29091643 -629.66251755 528.8425312 C-631.29678375 527.2053313 -632.93191036 525.56898977 -634.56793213 523.93354416 C-636.79011585 521.71184714 -639.00922505 519.48712592 -641.22751999 517.26154709 C-641.88488848 516.6057272 -642.54225697 515.94990731 -643.21954572 515.27421409 C-647.64100266 510.82853064 -647.64100266 510.82853064 -647.64100266 509.71435165 C-646.60097092 509.73791733 -646.60097092 509.73791733 -645.53992844 509.76195908 C-599.0338828 510.6730132 -564.25225438 494.49576446 -530.64100266 462.71435165 C-528.9706549 461.05137422 -527.30447051 459.384211 -525.64100266 457.71435165 C-524.33645378 456.40647186 -524.33645378 456.40647186 -523.00555038 455.07217026 C-522.05417779 454.11779632 -521.1028291 453.16339855 -520.1515007 452.20898056 C-514.81369245 446.85481974 -509.47333057 441.50321359 -504.13151455 436.15305138 C-500.90914193 432.92546175 -497.68771157 429.69694309 -494.46839523 426.46630478 C-491.33959969 423.32658184 -488.20831159 420.18936417 -485.07533836 417.05381012 C-483.8892634 415.86590156 -482.704062 414.67712005 -481.51979256 413.4874115 C-476.05877017 408.00229616 -470.6000834 402.59190368 -464.71139145 397.56112289 C-460.4353139 393.74689387 -456.44428877 389.62423671 -452.40949631 385.5580101 C-450.72886026 383.86442304 -449.04495637 382.17414389 -447.36024094 380.48461533 C-443.78431729 376.89735352 -440.21235833 373.30616045 -436.64100266 369.71435165 C-432.49720442 365.54682193 -428.35172604 361.3809919 -424.20197678 357.21938705 C-422.55602159 355.56702633 -420.91314621 353.911647 -419.27039719 352.2560997 C-410.98241568 343.92800687 -410.98241568 343.92800687 -406.65467453 340.22802353 C-401.57856079 335.8858136 -396.92626655 331.11067891 -392.22430038 326.37281418 C-390.5100568 324.6456249 -388.79254963 322.92173846 -387.07423019 321.19860458 C-383.42697825 317.54001194 -379.7836895 313.87748884 -376.14100266 310.21435165 C-371.91459635 305.96421796 -367.68651243 301.71578104 -363.45415878 297.47156906 C-361.7749663 295.78596876 -360.09885189 294.09735025 -358.42286301 292.40856552 C-349.96932563 283.91491684 -349.96932563 283.91491684 -345.65467453 280.22802353 C-340.51164141 275.83081789 -335.80240784 270.98657471 -331.03910446 266.18761826 C-329.29125344 264.42682665 -327.54014294 262.66933302 -325.78821945 260.91259384 C-322.06963915 257.1826704 -318.35502062 253.44881728 -314.64100266 249.71435165 C-310.33198836 245.38161392 -306.02129889 241.05057012 -301.70634079 236.72375107 C-299.99391095 235.00491121 -298.28455754 233.28305354 -296.57532883 231.56103134 C-291.76551101 226.72883121 -286.92239169 222.01632762 -281.7362175 217.58471298 C-277.38808697 213.70321357 -273.32883281 209.50868389 -269.22430038 205.37281418 C-267.5100568 203.6456249 -265.79254963 201.92173846 -264.07423019 200.19860458 C-260.42697825 196.54001194 -256.7836895 192.87748884 -253.14100266 189.21435165 C-248.91459635 184.96421796 -244.68651243 180.71578104 -240.45415878 176.47156906 C-238.7749663 174.78596876 -237.09885189 173.09735025 -235.42286301 171.40856552 C-226.96935876 162.91494878 -226.96935876 162.91494878 -222.66834641 159.2416954 C-217.45460436 154.78393757 -212.68312822 149.86709266 -207.85390854 145.00242233 C-206.07245017 143.20802831 -204.28773628 141.41692756 -202.50220871 139.6265831 C-198.7123 135.8253289 -194.92635168 132.02014578 -191.14100266 128.21435165 C-186.74938045 123.7990098 -182.3560854 119.38535917 -177.9585228 114.97593307 C-176.21285555 113.22385369 -174.47026314 111.46875688 -172.72779465 109.71349716 C-167.73790714 104.70084908 -162.72273617 99.78249818 -157.33912277 95.18761826 C-154.72583547 92.92036468 -152.3222433 90.4889979 -149.89100266 88.02685165 C-149.38859055 87.52065292 -148.88617844 87.01445419 -148.36854172 86.49291611 C-146.79017553 84.90253315 -145.21515256 83.30890721 -143.64100266 81.71435165 C-137.8269285 75.82490987 -132.05063509 69.97711652 -125.75037766 64.6010704 C-120.83426438 60.20388019 -116.27355537 55.40695598 -111.64100266 50.71435165 C-100.07144788 38.99482117 -100.07144788 38.99482117 -95.62928391 35.20653915 C-92.25509348 32.32781049 -89.11332592 29.24916188 -85.99647141 26.09716415 C-85.49600296 25.59118698 -84.99553452 25.08520981 -84.47990036 24.56389999 C-82.41096371 22.4674663 -80.34557409 20.36762999 -78.28528976 18.2626915 C-56.64398433 -3.81522169 -29.31270217 -19.71430878 0 0 Z " fill="#EC1B23" transform="translate(989.6410026550293,199.28564834594727)"/>
<path d="M0 0 C2.78480393 2.6455923 5.48396627 5.35399098 8.16204834 8.10751343 C9.14790585 9.10273088 10.13489875 10.09682476 11.12295532 11.08985901 C13.6881117 13.67386196 16.23788196 16.27251544 18.78442383 18.87484741 C21.39057128 21.53257647 24.01130912 24.17583555 26.63079834 26.82040405 C31.21485851 31.45199597 35.78627087 36.09569415 40.34860229 40.748703 C41.63199121 42.05520613 42.92173825 43.35548458 44.21673584 44.65048218 C43.34532959 44.68786499 42.47392334 44.7252478 41.57611084 44.76376343 C25.02999968 45.67702281 10.58222413 49.72957053 -2.11138916 60.79110718 C-2.70315948 61.30296066 -3.29492981 61.81481415 -3.90463257 62.34217834 C-12.20862362 69.64412063 -19.90013575 77.59226229 -27.65826416 85.46298218 C-29.97636088 87.80892899 -32.29602865 90.15326978 -34.6187439 92.49464417 C-36.04861417 93.93653833 -37.47580972 95.38109231 -38.89968872 96.8289032 C-42.73148971 100.69891437 -46.67952992 104.34050573 -50.80307007 107.89637756 C-54.18052927 110.88821397 -57.33281334 114.09740749 -60.50201416 117.30673218 C-61.20419067 118.01269531 -61.90636719 118.71865845 -62.62982178 119.4460144 C-64.85011019 121.67839576 -67.06710371 123.91400329 -69.28326416 126.15048218 C-72.20735895 129.10138596 -75.13489473 132.04881421 -78.06451416 134.99423218 C-78.71996216 135.65797852 -79.37541016 136.32172485 -80.05072021 137.00558472 C-83.83293293 140.80749521 -87.73642863 144.38357913 -91.79510498 147.88717651 C-95.17377201 150.88372869 -98.32995579 154.09451376 -101.50201416 157.30673218 C-102.20419067 158.01269531 -102.90636719 158.71865845 -103.62982178 159.4460144 C-105.85011019 161.67839576 -108.06710371 163.91400329 -110.28326416 166.15048218 C-113.20735895 169.10138596 -116.13489473 172.04881421 -119.06451416 174.99423218 C-119.71996216 175.65797852 -120.37541016 176.32172485 -121.05072021 177.00558472 C-121.68497925 177.64314697 -122.31923828 178.28070923 -122.97271729 178.93759155 C-123.78923767 179.76196716 -123.78923767 179.76196716 -124.62225342 180.60299683 C-126.46840801 182.35216651 -128.35341747 183.999795 -130.2849884 185.65220642 C-135.38237427 190.10678517 -140.14098204 194.87594694 -144.91668701 199.67037964 C-145.92000096 200.6739741 -146.92353744 201.67734612 -147.92727518 202.68051672 C-150.66658424 205.41953203 -153.40278183 208.16163683 -156.13846326 210.9042747 C-159.09644592 213.86865977 -162.05735875 216.83011556 -165.01792908 219.79191589 C-170.14258919 224.91945659 -175.26547131 230.04876805 -180.38719177 235.179245 C-187.80045663 242.60509039 -195.21698224 250.02767238 -202.63439137 257.44937795 C-214.68072812 269.50277524 -226.72519522 281.55803882 -238.76812744 293.61483765 C-239.48822434 294.33576235 -240.20832123 295.05668706 -240.95023924 295.79945797 C-246.0612974 300.91641624 -251.17228857 306.03344143 -256.28326416 311.15048218 C-262.12159685 316.99574318 -267.95995986 322.84097391 -273.79840088 328.68612671 C-274.51761579 329.40616975 -275.2368307 330.12621279 -275.97784001 330.86807531 C-287.977083 342.88101215 -299.97829561 354.89197942 -311.98091078 366.90154696 C-319.37821336 374.30332536 -326.77373434 381.70687533 -334.16695249 389.11273348 C-339.23319326 394.18741113 -344.30121022 399.26031027 -349.37061799 404.33182418 C-352.29339056 407.25593924 -355.21533183 410.18087261 -358.13506126 413.1080265 C-360.81117976 415.79092411 -363.48962861 418.47147268 -366.16989583 421.15022546 C-367.59089893 422.57162586 -369.00942566 423.99550062 -370.42784357 425.4194808 C-374.87082048 429.85533644 -379.36737647 434.15529359 -384.14140701 438.23447037 C-386.36593446 440.15300338 -388.44268142 442.1972355 -390.51177979 444.28134155 C-391.34624634 445.11911133 -392.18071289 445.9568811 -393.04046631 446.82003784 C-394.351745 448.14376404 -394.351745 448.14376404 -395.68951416 449.49423218 C-397.10189348 450.91239868 -398.51427577 452.33056225 -399.92682648 453.74855804 C-402.38113917 456.21371349 -404.83210949 458.68218727 -407.28326416 461.15048218 C-410.21263619 464.10033849 -413.14262701 467.04956057 -416.07659912 469.99484253 C-417.89547029 471.82116647 -419.71209068 473.64973579 -421.52606201 475.48092651 C-425.81632503 479.78817247 -430.17458863 483.90925817 -434.78463745 487.87002563 C-438.68285763 491.34271596 -442.28611924 495.11573975 -445.93560791 498.84579468 C-447.7001166 500.63271256 -449.46510642 502.41915546 -451.23052979 504.20516968 C-453.96631926 506.97777443 -456.69896146 509.75320084 -459.42315674 512.53720093 C-487.36119354 541.05754505 -519.24316317 564.84520323 -560.91705322 565.69393921 C-577.07273748 565.63080205 -595.58317308 563.08053073 -607.40826416 551.27548218 C-608.3866626 550.21200562 -608.3866626 550.21200562 -609.38482666 549.12704468 C-611.26556704 547.18504239 -613.12066289 545.48584013 -615.17510986 543.74545288 C-621.01930055 538.65519167 -626.44083736 533.13705308 -631.91217041 527.65438843 C-633.07209471 526.49513945 -634.23216728 525.33603881 -635.39237976 524.17707825 C-637.81198026 521.75894396 -640.22978387 519.33903137 -642.64630127 516.91781616 C-645.72470338 513.83371745 -648.80757439 510.75413123 -651.89181614 507.67587376 C-654.28471285 505.28661184 -656.67519654 502.89494704 -659.06498528 500.50257683 C-660.20001033 499.36689056 -661.33576235 498.23193032 -662.47229195 497.09774971 C-667.82251233 491.75616578 -673.08177726 486.40133912 -678.0002594 480.65364075 C-681.42813384 476.80251471 -685.12909888 473.21480594 -688.79606056 469.59308624 C-690.27443554 468.13237495 -691.74900485 466.66791422 -693.22264099 465.2024231 C-697.40674349 461.04255399 -701.59669013 456.8886066 -705.79083252 452.73886108 C-708.37076801 450.1857201 -710.94579956 447.62771714 -713.51788902 445.06667328 C-714.49399831 444.096756 -715.471999 443.12873824 -716.45194435 442.16269684 C-717.81799045 440.81589222 -719.17736658 439.46233249 -720.53643799 438.10848999 C-721.69723625 436.95887787 -721.69723625 436.95887787 -722.88148499 435.78604126 C-724.65038362 433.79969732 -725.74538028 432.08262435 -726.78326416 429.65048218 C-723.26285227 431.24839963 -720.33793277 433.37458333 -717.22076416 435.65048218 C-697.09409959 449.83142361 -673.80656989 458.72947156 -649.78326416 463.65048218 C-648.90702393 463.83739624 -648.03078369 464.0243103 -647.12799072 464.21688843 C-638.31396923 465.91177698 -629.59247944 465.96382936 -620.65826416 465.90048218 C-619.88258087 465.89738037 -619.10689758 465.89427856 -618.30770874 465.89108276 C-607.02669686 465.83811822 -595.92014223 465.60392652 -584.78326416 463.65048218 C-583.76232666 463.47307495 -583.76232666 463.47307495 -582.72076416 463.29208374 C-547.40516295 456.91385245 -512.66350715 440.92879454 -487.6893158 414.58743286 C-485.95324275 412.8232163 -484.17332665 411.23020543 -482.28253174 409.63583374 C-476.64680548 404.74101132 -471.431879 399.42276043 -466.16998291 394.13485718 C-465.01946025 392.98241183 -463.8687071 391.83019654 -462.71774292 390.67819214 C-460.25332797 388.21063292 -457.79047116 385.74153297 -455.3288269 383.27120972 C-451.4305941 379.35937512 -447.52847892 375.45142853 -443.62579346 371.54403687 C-435.34197603 363.24915196 -427.06239826 354.95004113 -418.78326416 346.65048218 C-409.84313443 337.6882969 -400.90226729 328.72685475 -391.95649815 319.770298 C-388.08276355 315.89160266 -384.21147532 312.01048745 -380.34208679 308.12745667 C-377.92869498 305.70656832 -375.5131997 303.287787 -373.0971489 300.86955261 C-371.98371988 299.7542629 -370.87114984 298.63811481 -369.75954056 297.52101135 C-364.47118519 292.20735858 -359.17360345 286.95110764 -353.46411133 282.08511353 C-339.11512338 269.83801081 -326.06716538 256.02582216 -312.78326416 242.65048218 C-309.2806046 239.12395967 -305.77614163 235.59926316 -302.26745605 232.07873535 C-300.88959171 230.694512 -299.51484227 229.30719023 -298.14019775 227.91976929 C-293.69380003 223.45606548 -289.19244544 219.13520024 -284.40266418 215.0403595 C-282.42536807 213.34331183 -280.55894429 211.55924222 -278.72076416 209.71298218 C-278.1316626 209.12645874 -277.54256104 208.5399353 -276.93560791 207.93563843 C-275.17778195 206.06934408 -273.51905009 204.17162031 -271.85699463 202.22201538 C-266.97705081 196.63849764 -261.70478536 191.44804781 -256.45123291 186.22079468 C-255.3184917 185.08997625 -254.18598061 183.95892726 -253.05368042 182.82766724 C-250.62868321 180.40581382 -248.20214557 177.98551858 -245.77438354 175.56643677 C-241.92975759 171.73541511 -238.08902193 167.90050888 -234.24884033 164.06503296 C-225.40439051 155.23258927 -216.55492033 146.40518123 -207.70539856 137.57781982 C-199.58986453 129.48250411 -191.4754131 121.38611095 -183.36501408 113.28565025 C-179.5532221 109.47881828 -175.73901072 105.67443272 -171.92288208 101.87194824 C-169.543511 99.50007497 -167.16624812 97.1260971 -164.78953171 94.75156403 C-163.69359285 93.65748548 -162.59679584 92.56426572 -161.49904251 91.47200775 C-156.22787709 86.22638481 -151.02298797 80.9653343 -146.1938324 75.30383301 C-143.96089589 72.68657045 -141.61787882 70.17735922 -139.28326416 67.65048218 C-136.2435742 64.35095441 -133.22168357 61.04096611 -130.28326416 57.65048218 C-126.87649066 53.71958968 -123.35323631 49.89851645 -119.83013916 46.07235718 C-117.27771273 43.29554161 -114.75343128 40.50067501 -112.28326416 37.65048218 C-108.87649066 33.71958968 -105.35323631 29.89851645 -101.83013916 26.07235718 C-99.27771273 23.29554161 -96.75343128 20.50067501 -94.28326416 17.65048218 C-93.11659749 16.31714884 -91.94993083 14.98381551 -90.78326416 13.65048218 C-89.55349854 12.22735718 -89.55349854 12.22735718 -88.29888916 10.77548218 C-76.93933341 -2.16026036 -62.91799096 -12.60011062 -45.22857666 -14.28311157 C-28.33044961 -14.7420064 -13.241265 -11.1777346 0 0 Z " fill="#EC1C24" transform="translate(919.7832641601563,129.34951782226563)"/>
<path d="M0 0 C1.09852295 0.16024658 1.09852295 0.16024658 2.21923828 0.32373047 C44.13600867 6.54535201 83.08445897 26.92631329 114.125 55.375 C114.65754395 55.86274902 115.19008789 56.35049805 115.73876953 56.85302734 C123.53071256 64.13903258 123.53071256 64.13903258 124.56640625 68.24609375 C124.55894529 72.43169101 124.3223511 75.17833619 121.625 78.5 C118.15361044 81.8060853 116.06007807 82.47634381 111.21484375 82.40625 C105.57196784 81.37122514 101.59757314 76.61776193 97.7421875 72.67578125 C81.03530114 55.87574618 59.41172474 44.5418323 38 35 C36.89785156 34.49726563 35.79570312 33.99453125 34.66015625 33.4765625 C-9.01984761 15.06646691 -63.09735206 16.65688194 -106.74560547 34.06201172 C-139.02773379 47.49367048 -168.55507884 68.14228892 -190 96 C-190.44182617 96.56589844 -190.88365234 97.13179688 -191.33886719 97.71484375 C-222.78456262 138.41699651 -236.29655028 190.38959227 -230.1875 241.3125 C-229.81937813 243.87912747 -229.42454763 246.44210055 -229 249 C-228.89816406 249.65677734 -228.79632813 250.31355469 -228.69140625 250.99023438 C-223.44500706 284.5736662 -208.02918916 317.18179031 -186 343 C-185.39671875 343.71414063 -184.7934375 344.42828125 -184.171875 345.1640625 C-178.09671442 352.12418741 -171.49306718 358.56823183 -164.91479492 365.04858398 C-164.12564697 365.82919189 -163.33649902 366.6097998 -162.5234375 367.4140625 C-161.82138184 368.1045166 -161.11932617 368.7949707 -160.39599609 369.50634766 C-158.43547047 371.54678058 -156.58428298 373.61953116 -154.73852539 375.76147461 C-150.90349427 380.1754462 -146.81683351 384.2929533 -142.66015625 388.40234375 C-141.89319931 389.16551407 -141.12624237 389.92868439 -140.33604431 390.71498108 C-137.91396374 393.12495178 -135.48864179 395.53161826 -133.0625 397.9375 C-129.84222663 401.13128723 -126.62520999 404.32830321 -123.41015625 407.52734375 C-122.29472191 408.63033058 -122.29472191 408.63033058 -121.15675354 409.75559998 C-120.47862106 410.43042923 -119.80048859 411.10525848 -119.10180664 411.80053711 C-118.50114883 412.3959581 -117.90049103 412.99137909 -117.28163147 413.60484314 C-116 415 -116 415 -116 416 C-120.85612361 416.19875516 -125.7098501 416.34337321 -130.5690918 416.43945312 C-132.21925111 416.47952358 -133.86912922 416.53400048 -135.51831055 416.60351562 C-137.89963144 416.70132887 -140.2771836 416.74607951 -142.66015625 416.78125 C-143.38960953 416.82254028 -144.11906281 416.86383057 -144.87062073 416.90637207 C-148.14395275 416.90919685 -150.19056717 416.69693185 -152.72088623 414.51829529 C-153.88591209 413.16540012 -155.01432849 411.78048259 -156.11296082 410.37313843 C-158.16185489 407.79645147 -160.37217907 405.53841241 -162.71923828 403.23071289 C-163.57768341 402.38525406 -164.43612854 401.53979523 -165.32058716 400.66871643 C-166.22799652 399.77901657 -167.13540588 398.88931671 -168.0703125 397.97265625 C-169.03860516 397.01644053 -170.00635673 396.05967661 -170.97360229 395.10240173 C-175.03430988 391.08381192 -179.09742273 387.06778739 -183.17773438 383.0690918 C-195.08295334 371.39439088 -206.41652895 359.71844843 -216 346 C-216.46161026 345.34846451 -216.92322052 344.69692902 -217.39881897 344.02565002 C-234.25970637 320.20213893 -245.06029783 293.31023602 -251.6875 265 C-251.89012451 264.14680176 -252.09274902 263.29360352 -252.30151367 262.41455078 C-255.60107191 247.74342364 -256.37858737 233.28729707 -256.3125 218.3125 C-256.31034485 217.43093231 -256.3081897 216.54936462 -256.30596924 215.64108276 C-256.25460927 202.53701805 -255.79570185 189.84477991 -253 177 C-252.79600586 176.02111816 -252.59201172 175.04223633 -252.38183594 174.03369141 C-243.44802827 131.81592345 -223.85142897 95.06086186 -194 64 C-193.48179687 63.45456543 -192.96359375 62.90913086 -192.4296875 62.34716797 C-184.54096514 54.07226739 -176.26599784 46.70155501 -167 40 C-166.0090332 39.28312012 -166.0090332 39.28312012 -164.99804688 38.55175781 C-116.69181098 4.08300906 -58.44559883 -8.99246299 0 0 Z " fill="#009DDA" transform="translate(433,180)"/>
<path d="M0 0 C7.74943645 5.6992791 14.62972738 12.07707752 21.35742188 18.93701172 C22.96803063 20.57912382 24.58938262 22.21000401 26.21289062 23.83935547 C27.27081221 24.90643966 28.328126 25.97412685 29.38476562 27.04248047 C30.08966629 27.75375595 30.08966629 27.75375595 30.80880737 28.47940063 C33.3459901 31.06980278 35.76150925 33.72207594 38.11401367 36.48144531 C43.50365967 42.68517055 49.41215932 48.39597331 55.23242188 54.19091797 C56.50059077 55.45721839 57.76853655 56.7237423 59.03627014 57.99047852 C62.34988523 61.30030218 65.66649385 64.60710987 68.98376465 67.91326904 C72.37773118 71.29694835 75.76881693 74.68351212 79.16015625 78.06982422 C85.79733593 84.69632619 92.43768608 91.31964115 99.08007812 97.94091797 C97.63703499 100.95501103 96.21415945 103.04563813 93.82226562 105.39404297 C93.19707031 106.01279297 92.571875 106.63154297 91.92773438 107.26904297 C90.95126953 108.22037109 90.95126953 108.22037109 89.95507812 109.19091797 C89.29636719 109.84060547 88.63765625 110.49029297 87.95898438 111.15966797 C86.33710685 112.75804002 84.70989553 114.35065503 83.08007812 115.94091797 C78.11443891 111.77611134 73.43526589 107.44385166 68.86132812 102.85498047 C68.19975708 102.19436615 67.53818604 101.53375183 66.85656738 100.8531189 C65.46711468 99.46434235 64.07890656 98.07431959 62.69189453 96.68310547 C60.58932531 94.57518868 58.48148208 92.47265297 56.37304688 90.37060547 C55.01465332 89.01155087 53.65657014 87.65218597 52.29882812 86.29248047 C51.67882935 85.67450592 51.05883057 85.05653137 50.42004395 84.41983032 C47.43152125 81.41554198 44.54826732 78.36727238 41.78344727 75.15527344 C34.38443565 66.60348037 26.20434137 58.71978359 18.24047852 50.69628906 C16.09605698 48.5340907 13.96047632 46.36371056 11.83227539 44.18554688 C9.23127741 41.52362227 6.61517221 38.87741231 3.98834419 36.24098206 C3.0038003 35.24800976 2.02429438 34.25001007 1.05055046 33.2464447 C-11.0052917 20.84148228 -25.79820093 11.94665811 -43.54492188 11.56591797 C-45.67180712 11.65314849 -47.79756535 11.77704984 -49.91992188 11.94091797 C-50.88285156 12.00021484 -51.84578125 12.05951172 -52.83789062 12.12060547 C-67.46403988 13.7391537 -80.61031777 22.2068044 -89.90429688 33.31201172 C-100.55421617 47.53466035 -102.13344331 62.72450627 -100.91992188 79.94091797 C-98.27675923 94.70122986 -88.7346976 105.86767245 -78.32617188 115.98779297 C-77.20833484 117.09371974 -76.09169964 118.20086245 -74.97619629 119.30914307 C-72.06350681 122.19732763 -69.1365534 125.07058454 -66.20562744 127.94024658 C-62.07903118 131.98588217 -57.97235099 136.05174871 -53.86364746 140.11553955 C-51.68403891 142.2712598 -49.49903406 144.4212556 -47.3092041 146.56658936 C-42.46036393 151.3295858 -37.71792802 156.11833325 -33.33044434 161.31500244 C-31.94872713 162.95858292 -31.94872713 162.95858292 -30.3951416 164.39935303 C-27.36976372 167.43296554 -26.52189498 169.8504236 -26.29492188 174.00341797 C-26.49177385 177.74360551 -26.81919196 178.80277409 -29.10742188 181.94091797 C-32.78702136 184.55752204 -35.18170455 185.90229092 -39.73242188 186.00341797 C-46.44731288 183.76512097 -51.19015086 177.73236765 -56.05311584 172.77653503 C-57.81273154 171.04631746 -59.62479919 169.44321748 -61.50366211 167.84448242 C-66.57200418 163.43467406 -71.31987367 158.72159299 -76.08007812 153.98388672 C-76.54943724 153.51735498 -77.01879635 153.05082325 -77.50237846 152.57015419 C-79.98351279 150.10388919 -82.46185242 147.63485776 -84.93774414 145.16333008 C-87.4679147 142.6386451 -90.00724075 140.12338476 -92.54883671 137.61020947 C-94.52815511 135.64967893 -96.50057431 133.68231222 -98.47128105 131.71312904 C-99.85060206 130.33822826 -101.23697238 128.97041078 -102.62355042 127.60282898 C-120.48000916 109.68366099 -128.23242188 89.00249464 -128.23242188 63.9152832 C-127.96652354 44.73585512 -120.97242474 27.09915773 -107.91992188 12.94091797 C-107.14777344 12.08884766 -106.375625 11.23677734 -105.58007812 10.35888672 C-99.94096885 4.4168869 -94.04798288 -0.04761913 -86.91992188 -4.05908203 C-86.11941406 -4.52056641 -85.31890625 -4.98205078 -84.49414062 -5.45751953 C-77.65930563 -9.14900161 -70.43303332 -11.18768431 -62.91992188 -13.05908203 C-62.15679687 -13.25373047 -61.39367187 -13.44837891 -60.60742188 -13.64892578 C-39.31619781 -16.89831317 -17.60240222 -12.41293146 0 0 Z " fill="#009DDA" transform="translate(446.919921875,332.05908203125)"/>
<path d="M0 0 C2.81992717 1.82120296 4.50345478 3.00690956 6 6 C6.98346751 13.10013302 5.13787773 17.62425268 1.4375 23.5625 C0.51045274 25.14541966 -0.41135111 26.73142078 -1.328125 28.3203125 C-1.78380859 29.10696289 -2.23949219 29.89361328 -2.70898438 30.70410156 C-16.92790593 55.99054981 -20.78196921 86.67198732 -15 115 C-14.80535156 115.97324219 -14.61070312 116.94648438 -14.41015625 117.94921875 C-7.844891 147.04616357 8.39843502 168.65915264 29.25662613 189.33179092 C30.74039831 190.80250142 32.22076193 192.27657427 33.70040894 193.75143433 C36.83908526 196.87883138 39.98172695 200.00222393 43.125 203.125 C46.78121187 206.75742845 50.43567909 210.39157923 54.08593369 214.02999496 C55.52999399 215.4676722 56.9770763 216.90225615 58.42434692 218.33670044 C62.90547678 222.80122433 67.22730424 227.31777505 71.34545898 232.11837769 C74.23962714 235.40976263 77.35439872 238.47706266 80.46484375 241.5625 C81.14301651 242.23925781 81.82118927 242.91601562 82.51991272 243.61328125 C84.65674305 245.74457675 86.79704823 247.87234218 88.9375 250 C90.39932123 251.45679779 91.86091187 252.91382701 93.32226562 254.37109375 C96.878854 257.91673973 100.43856016 261.45922739 104 265 C103 268 103 268 101.20581055 269.19848633 C98.70696604 270.41989227 96.20514524 271.63022117 93.6875 272.8125 C92.38522461 273.4612207 92.38522461 273.4612207 91.05664062 274.12304688 C90.21681641 274.52201172 89.37699219 274.92097656 88.51171875 275.33203125 C87.74303467 275.70046143 86.97435059 276.0688916 86.18237305 276.44848633 C83.31394573 277.17337472 82.50738023 276.49231852 80 275 C78.22667599 273.48115158 78.22667599 273.48115158 76.40403748 271.66473389 C75.70764664 270.97542786 75.0112558 270.28612183 74.29376221 269.57592773 C73.53996277 268.81965088 72.78616333 268.06337402 72.00952148 267.28417969 C71.20730667 266.48707581 70.40509186 265.68997192 69.5785675 264.86871338 C66.92086674 262.2249389 64.27068952 259.57377064 61.62109375 256.921875 C59.77008155 255.07475134 57.91884634 253.22785113 56.06739807 251.38116455 C52.17907469 247.50105893 48.29533448 243.61640649 44.41381836 239.72949219 C39.95788274 235.26755339 35.49293536 230.81478558 31.02331489 226.36655879 C26.69917878 222.06234538 22.38361834 217.74962917 18.07118416 213.43369293 C16.24891046 211.61192878 14.42430622 209.79249245 12.5972271 207.97554779 C-1.05451071 194.39019457 -13.51979253 180.89271538 -23 164 C-23.4964502 163.11586426 -23.4964502 163.11586426 -24.00292969 162.21386719 C-43.27911308 127.332276 -47.39984438 85.62665468 -36.45703125 47.390625 C-33.077892 36.37435455 -28.62570193 26.04532198 -23 16 C-22.65791504 15.38060547 -22.31583008 14.76121094 -21.96337891 14.12304688 C-16.71906604 4.73510987 -11.86271246 -3.47361193 0 0 Z " fill="#009DDA" transform="translate(289,307)"/>
<path d="M0 0 C11.12013585 9.12056388 21.12697299 19.39313093 31.25642991 29.57926154 C33.90860914 32.24409931 36.56660373 34.90312495 39.22393799 37.56282043 C44.23536451 42.58041792 49.24167909 47.60308279 54.2460925 52.62767392 C59.95205995 58.35613836 65.66383214 64.07880039 71.37605441 69.8010267 C83.10812781 81.55390258 94.83303568 93.3138994 106.55311584 105.07873535 C105.15715099 107.9849267 103.82247383 110.04995301 101.51405334 112.31311035 C100.64393616 113.17355957 100.64393616 113.17355957 99.75624084 114.0513916 C99.15295959 114.63791504 98.54967834 115.22443848 97.92811584 115.82873535 C97.31710022 116.43072754 96.70608459 117.03271973 96.07655334 117.6529541 C94.57322961 119.13278841 93.06376729 120.60638212 91.55311584 122.07873535 C87.90347369 120.57703304 85.91386479 118.48876285 83.35598755 115.5186615 C78.96507329 110.51957284 74.39790169 105.75675808 69.70716858 101.03991699 C68.87324081 100.19781174 68.03931305 99.35570648 67.18011475 98.48808289 C64.45196855 95.735367 61.71991251 92.98658629 58.98670959 90.2388916 C58.03454537 89.28135225 57.08238232 88.32381173 56.13022041 87.36627007 C52.16286201 83.377349 48.19408737 79.38984589 44.22160244 75.4060297 C38.58488001 69.75310426 32.95681201 64.09187008 27.34056896 58.41859537 C23.35843346 54.39744458 19.36646246 50.38622056 15.3673988 46.3819055 C12.99425052 44.00514869 10.62670461 41.62345348 8.26695061 39.23335457 C-9.69822183 21.05036587 -27.96610939 7.13369995 -52.44688416 -0.92126465 C-53.14297791 -1.1842334 -53.83907166 -1.44720215 -54.55625916 -1.71813965 C-75.12261313 -9.29521743 -98.33205498 -8.85401015 -119.44688416 -3.92126465 C-120.64571228 -3.64669434 -121.84454041 -3.37212402 -123.07969666 -3.0892334 C-128.40089728 -1.89874386 -128.40089728 -1.89874386 -133.44688416 0.07873535 C-137.68078578 0.48584128 -139.96276767 0.334495 -143.75938416 -1.67126465 C-146.85483273 -4.26280299 -148.16837264 -6.11093981 -148.78282166 -10.1048584 C-148.84967121 -13.96207769 -148.75708695 -16.35049152 -146.88438416 -19.79626465 C-141.90805135 -24.13460607 -135.62613706 -25.56003467 -129.32188416 -26.98376465 C-128.65157166 -27.14425293 -127.98125916 -27.30474121 -127.29063416 -27.47009277 C-83.13860655 -37.68743002 -35.76287928 -28.08059202 0 0 Z " fill="#009DDA" transform="translate(489.44688415527344,276.9212646484375)"/>
<path d="M0 0 C1.90727234 1.2774744 1.90727234 1.2774744 3.74487305 2.98634338 C4.43624359 3.6247069 5.12761414 4.26307041 5.8399353 4.92077827 C9.56291366 8.50441977 13.24884919 12.11862141 16.89453125 15.78100586 C17.7442601 16.63058868 18.59398895 17.48017151 19.46946716 18.35549927 C21.77445443 20.66105939 24.07722355 22.96880637 26.37898254 25.27758861 C28.79413758 27.69904081 31.212169 30.11761739 33.62988281 32.53651428 C38.19674838 37.10647454 42.76106121 41.67897542 47.3244381 46.25241905 C52.52446478 51.46366502 57.72736797 56.6720351 62.93050194 61.88017833 C73.62351416 72.58361274 84.31295032 83.29061191 95 94 C93.60403514 96.90619135 92.26935799 98.97121766 89.9609375 101.234375 C89.38085938 101.80800781 88.80078125 102.38164062 88.203125 102.97265625 C87.59984375 103.55917969 86.9965625 104.14570313 86.375 104.75 C85.76398438 105.35199219 85.15296875 105.95398438 84.5234375 106.57421875 C83.02011376 108.05405305 81.51065144 109.52764676 80 111 C76.7426744 109.57060628 74.57859755 107.8278866 72.07099915 105.3182373 C71.30125763 104.55269028 70.53151611 103.78714325 69.7384491 102.99839783 C68.90348404 102.15781326 68.06851898 101.3172287 67.20825195 100.45117188 C66.32169922 99.56651749 65.43514648 98.6818631 64.52172852 97.770401 C62.09469667 95.34643818 59.67221817 92.91809254 57.2518084 90.48752785 C54.71845775 87.94538855 52.17983132 85.40852785 49.64189148 82.87097168 C45.38243601 78.61058013 41.12686915 74.34633562 36.8737793 70.07958984 C31.95332098 65.1433915 27.02764091 60.21245391 22.09894019 55.28448629 C17.35941576 50.54557167 12.62275266 45.80380842 7.88768578 41.06044006 C5.871341 39.04056074 3.85414567 37.02153647 1.83629799 35.00315857 C-0.97762536 32.1880465 -3.78727552 29.36869385 -6.59643555 26.54882812 C-7.85799217 25.28795128 -7.85799217 25.28795128 -9.14503479 24.00160217 C-9.90631683 23.23605515 -10.66759888 22.47050812 -11.45195007 21.6817627 C-12.1168983 21.01513863 -12.78184652 20.34851456 -13.46694469 19.66168976 C-16.21973278 16.67792279 -16.33288187 14.11833827 -16.2890625 10.1015625 C-15.82122304 6.70024318 -14.15733871 4.58880645 -12 2 C-7.8836137 -0.74425753 -4.81767552 -0.91538809 0 0 Z " fill="#009DDA" transform="translate(402,385)"/>
<path d="M0 0 C5.35040321 2.93243253 9.08210452 7.03567289 13.125 11.5 C14.43974814 12.92861107 15.75617768 14.35567644 17.07421875 15.78125 C17.72825684 16.48894531 18.38229492 17.19664062 19.05615234 17.92578125 C23.5729245 22.74548689 28.2906497 27.36957736 33 32 C31.67879172 34.93230193 30.25361803 36.98664899 27.9609375 39.234375 C27.38085938 39.80800781 26.80078125 40.38164062 26.203125 40.97265625 C25.59984375 41.55917969 24.9965625 42.14570313 24.375 42.75 C23.76398437 43.35199219 23.15296875 43.95398438 22.5234375 44.57421875 C21.02011376 46.05405305 19.51065144 47.52764676 18 49 C15.21151346 47.72117316 13.10909577 46.37666659 10.8996582 44.25366211 C10.32258621 43.70226059 9.74551422 43.15085907 9.1509552 42.58274841 C8.23511909 41.6890731 8.23511909 41.6890731 7.30078125 40.77734375 C6.66512741 40.1578334 6.02947357 39.53832306 5.3745575 38.90003967 C4.03441168 37.58751087 2.69730273 36.27187509 1.36303711 34.95336914 C-0.00048369 33.61290108 -1.37289522 32.28141524 -2.75415039 30.95922852 C-4.75590576 29.04304072 -6.7296027 27.10149047 -8.69921875 25.15234375 C-9.31584885 24.57072983 -9.93247894 23.98911591 -10.5677948 23.38987732 C-14.43466514 19.48314623 -15.7450983 16.54315627 -16.11872864 11.04689026 C-15.87751586 6.88836465 -14.02711798 4.18513613 -11.375 1.125 C-7.68990686 -0.62057043 -3.98382624 -0.81868274 0 0 Z " fill="#009DDA" transform="translate(613,301)"/>
<path d="M0 0 C4.52615993 3.67832017 8.39424999 7.41086363 12 12 C9 12 9 12 6.73828125 10.13671875 C5.93777344 9.32847656 5.13726562 8.52023437 4.3125 7.6875 C3.50425781 6.88699219 2.69601563 6.08648438 1.86328125 5.26171875 C0 3 0 3 0 0 Z " fill="#324C8C" transform="translate(183,549)"/>
</svg>
